<svg version="1.1" xmlns="http://www.w3.org/2000/svg" viewBox="0 0 1574.4826032666963 816.8259582900628" width="1574.4826032666963" height="816.8259582900628">
  <!-- svg-source:excalidraw -->
  
  <defs>
    <style class="style-fonts">
      
    </style>
    
  </defs>
  <g stroke-linecap="round" transform="translate(10 624.2001037508758) rotate(0 91.31292726959352 91.3129272695935)"><path d="M32 0 C70.23 -0.76, 115.3 2.55, 150.63 0 C170.95 3.11, 185.88 13.46, 182.63 32 C181.38 71.98, 179.36 104.96, 182.63 150.63 C184.48 171.91, 171.14 182.2, 150.63 182.63 C118.42 183.82, 90.78 185.77, 32 182.63 C11.1 182.5, -1.26 173.49, 0 150.63 C0.49 113.41, -2.2 80.27, 0 32 C-0.79 12.06, 7.56 1.98, 32 0" stroke="none" stroke-width="0" fill="#ffec99"></path><path d="M32 0 C60.33 -1.68, 86.82 1.89, 150.63 0 M32 0 C62.48 0.17, 91 -0.56, 150.63 0 M150.63 0 C172.19 -0.05, 183.57 11.79, 182.63 32 M150.63 0 C174.08 -0.13, 181.96 12.35, 182.63 32 M182.63 32 C182.36 73.13, 183.61 111.94, 182.63 150.63 M182.63 32 C180.57 64.1, 182.04 94.92, 182.63 150.63 M182.63 150.63 C184.05 172.87, 173.8 183.9, 150.63 182.63 M182.63 150.63 C180.41 171.64, 170.08 182.56, 150.63 182.63 M150.63 182.63 C109.42 182.65, 70.7 182.7, 32 182.63 M150.63 182.63 C111.6 182.52, 73.79 180.82, 32 182.63 M32 182.63 C11 181.24, 1.38 173.55, 0 150.63 M32 182.63 C12.79 180.95, 1.7 170.72, 0 150.63 M0 150.63 C0.34 121.13, 2.09 94.82, 0 32 M0 150.63 C0.18 117.71, 2.05 85.53, 0 32 M0 32 C-0.05 10.72, 10.11 -1.4, 32 0 M0 32 C0.65 11.67, 10.88 -0.73, 32 0" stroke="#1e1e1e" stroke-width="2" fill="none"></path></g><g stroke-linecap="round" transform="translate(293.2721766389008 624.2001037508753) rotate(0 91.31292726959353 91.3129272695935)"><path d="M32 0 C82.07 2.14, 124.5 -0.45, 150.63 0 C168.49 -0.59, 179.32 9.53, 182.63 32 C179.07 73.78, 182.57 115.89, 182.63 150.63 C185.46 172.89, 168.68 179.6, 150.63 182.63 C119.35 180.93, 82.89 182.06, 32 182.63 C7.63 182.51, 2.72 169.28, 0 150.63 C-2.83 126.96, 1.96 102.42, 0 32 C-3.13 12.11, 7.94 2.16, 32 0" stroke="none" stroke-width="0" fill="#ffec99"></path><path d="M32 0 C79.03 -2.36, 126.94 -1.81, 150.63 0 M32 0 C75.05 0.47, 119.02 -0.01, 150.63 0 M150.63 0 C171.62 -1.69, 183.68 11.02, 182.63 32 M150.63 0 C170.91 1.93, 184.75 9.45, 182.63 32 M182.63 32 C182.29 60.8, 182.14 93.9, 182.63 150.63 M182.63 32 C182.67 77.21, 183.41 122.17, 182.63 150.63 M182.63 150.63 C181.08 173.36, 170.45 181.7, 150.63 182.63 M182.63 150.63 C184.38 170.86, 170.41 184.04, 150.63 182.63 M150.63 182.63 C123.17 183.11, 95.68 184.29, 32 182.63 M150.63 182.63 C107.66 181.83, 65.47 182.94, 32 182.63 M32 182.63 C9.62 184, -1.59 173.35, 0 150.63 M32 182.63 C9.32 184.02, -0.47 171.66, 0 150.63 M0 150.63 C-0.88 117.85, -0.77 81.75, 0 32 M0 150.63 C0.16 113.56, 1.78 75.28, 0 32 M0 32 C-0.48 9.14, 11.48 -0.03, 32 0 M0 32 C1.18 10.49, 9.73 1.91, 32 0" stroke="#1e1e1e" stroke-width="2" fill="none"></path></g><g stroke-linecap="round"><g transform="translate(292.40659485659666 722.0106626864995) rotate(0 -49.915456846153575 0)"><path d="M-0.06 0.12 C-16.93 0.16, -84.5 -0.03, -100.95 -0.04 M-1.55 -0.87 C-18.1 -0.59, -82.58 1.1, -98.83 1.47" stroke="#1e1e1e" stroke-width="2" fill="none"></path></g><g transform="translate(292.40659485659666 722.0106626864995) rotate(0 -49.915456846153575 0)"><path d="M-75.56 -7.65 C-82.92 -6.58, -90.72 -0.06, -98.83 1.47 M-75.56 -7.65 C-83.59 -5.63, -89.25 -1.26, -98.83 1.47" stroke="#1e1e1e" stroke-width="2" fill="none"></path></g><g transform="translate(292.40659485659666 722.0106626864995) rotate(0 -49.915456846153575 0)"><path d="M-75.13 9.44 C-82.59 4.98, -90.53 5.97, -98.83 1.47 M-75.13 9.44 C-83.16 6.28, -88.95 5.46, -98.83 1.47" stroke="#1e1e1e" stroke-width="2" fill="none"></path></g></g><mask></mask><g stroke-linecap="round" transform="translate(576.5443532778017 624.2001037508758) rotate(0 91.31292726959353 91.3129272695935)"><path d="M32 0 C57.59 -1.96, 85.02 2.91, 150.63 0 C172.05 2.79, 179.08 11.84, 182.63 32 C183.82 69.61, 182.8 102.98, 182.63 150.63 C179.62 175.01, 168.75 180.04, 150.63 182.63 C119.91 185.37, 90.08 184.24, 32 182.63 C8.08 181.17, -2.3 174.11, 0 150.63 C-4.19 124.54, 2.38 97.37, 0 32 C-1.07 13.15, 12.37 -2.52, 32 0" stroke="none" stroke-width="0" fill="#ffec99"></path><path d="M32 0 C62.77 -0.58, 96.6 -1.88, 150.63 0 M32 0 C69.23 -1.47, 106.02 -1.12, 150.63 0 M150.63 0 C171.76 1.53, 183.64 10.48, 182.63 32 M150.63 0 C172.98 0.78, 182.43 10.94, 182.63 32 M182.63 32 C182.37 73.7, 183.98 115.32, 182.63 150.63 M182.63 32 C183.65 58.86, 182.95 84.44, 182.63 150.63 M182.63 150.63 C184.18 172.74, 173.16 183.01, 150.63 182.63 M182.63 150.63 C181.75 170.58, 171.26 182.75, 150.63 182.63 M150.63 182.63 C128.71 182.69, 101.32 182.37, 32 182.63 M150.63 182.63 C105.18 183.62, 59.45 182.95, 32 182.63 M32 182.63 C12.09 183.07, -1.5 173.36, 0 150.63 M32 182.63 C9.19 184.33, 0.49 170.12, 0 150.63 M0 150.63 C0.51 123.09, 0.94 97.87, 0 32 M0 150.63 C1.48 112.78, 0.56 74.74, 0 32 M0 32 C-0.9 9.96, 10.7 1.25, 32 0 M0 32 C0.35 9.82, 8.62 0.46, 32 0" stroke="#1e1e1e" stroke-width="2" fill="none"></path></g><g stroke-linecap="round"><g transform="translate(577.5240439452173 718.9405695739069) rotate(0 -48.836440477475264 0.08991803072331095)"><path d="M-0.38 0.41 C-16.85 0.58, -82.45 0.2, -98.83 0.33 M1.62 -0.42 C-14.49 0.03, -80.41 1.99, -96.73 1.95" stroke="#1e1e1e" stroke-width="2" fill="none"></path></g><g transform="translate(577.5240439452173 718.9405695739069) rotate(0 -48.836440477475264 0.08991803072331095)"><path d="M-73.38 -6.98 C-79.65 -6.35, -86.97 -3.45, -96.73 1.95 M-73.38 -6.98 C-82.43 -3.82, -91.32 0.49, -96.73 1.95" stroke="#1e1e1e" stroke-width="2" fill="none"></path></g><g transform="translate(577.5240439452173 718.9405695739069) rotate(0 -48.836440477475264 0.08991803072331095)"><path d="M-73.1 10.12 C-79.35 5.7, -86.76 3.55, -96.73 1.95 M-73.1 10.12 C-82.29 6.74, -91.28 4.52, -96.73 1.95" stroke="#1e1e1e" stroke-width="2" fill="none"></path></g></g><mask></mask><g stroke-opacity="0.3" fill-opacity="0.3" stroke-linecap="round" transform="translate(859.8165299167026 624.2001037508753) rotate(0 91.3129272695935 91.3129272695935)"><path d="M32 0 C75.82 -1.56, 117.46 -3.2, 150.63 0 C172.89 1.67, 179.49 7.38, 182.63 32 C182.56 71.14, 185.45 105.23, 182.63 150.63 C184.19 168.65, 175.55 185.39, 150.63 182.63 C110.58 182.74, 68.21 179.76, 32 182.63 C11.3 179.83, -1.38 172.68, 0 150.63 C-2.86 114.92, -4.62 79.34, 0 32 C1.29 7.33, 10.32 0.04, 32 0" stroke="none" stroke-width="0" fill="#ffec99"></path><path d="M32 0 C63.36 1.54, 98.16 2.97, 150.63 0 M32 0 C58.94 -0.1, 85.35 0.3, 150.63 0 M150.63 0 C172.66 -0.93, 182.9 9.13, 182.63 32 M150.63 0 C172.26 -0.31, 183.73 12.85, 182.63 32 M182.63 32 C180.57 65.63, 180.29 98.7, 182.63 150.63 M182.63 32 C181.33 60.44, 180.8 89.81, 182.63 150.63 M182.63 150.63 C182.77 170.79, 172.53 181.19, 150.63 182.63 M182.63 150.63 C182.68 169.87, 169.74 181.16, 150.63 182.63 M150.63 182.63 C112.37 182.98, 79.64 183.32, 32 182.63 M150.63 182.63 C108.16 183.26, 65.45 184.6, 32 182.63 M32 182.63 C9.71 181.69, 1.5 173.1, 0 150.63 M32 182.63 C12.33 184.59, -0.8 173.25, 0 150.63 M0 150.63 C0.64 112.99, -1.94 72.36, 0 32 M0 150.63 C-0.95 125.04, -1.74 98.28, 0 32 M0 32 C-1.11 9.21, 12.05 1.59, 32 0 M0 32 C0.25 9.23, 11.11 1.16, 32 0" stroke="#1e1e1e" stroke-width="2" fill="none"></path></g><g stroke-linecap="round"><g transform="translate(859.5021530428971 717.5641217242487) rotate(0 -47.32572991728114 0.08991803072331095)"><path d="M0.22 0.28 C-15.18 0.31, -77.77 -0.63, -93.57 -0.75 M-1.12 -0.62 C-16.48 -0.39, -78.26 0.1, -93.95 0.31" stroke="#1e1e1e" stroke-width="2" fill="none"></path></g><g transform="translate(859.5021530428971 717.5641217242487) rotate(0 -47.32572991728114 0.08991803072331095)"><path d="M-70.55 -8.49 C-74.85 -4.87, -81.57 -4.75, -93.95 0.31 M-70.55 -8.49 C-75.92 -6.7, -81.94 -4.68, -93.95 0.31" stroke="#1e1e1e" stroke-width="2" fill="none"></path></g><g transform="translate(859.5021530428971 717.5641217242487) rotate(0 -47.32572991728114 0.08991803072331095)"><path d="M-70.37 8.61 C-74.58 8.79, -81.34 5.47, -93.95 0.31 M-70.37 8.61 C-75.87 6.09, -81.95 3.81, -93.95 0.31" stroke="#1e1e1e" stroke-width="2" fill="none"></path></g></g><mask></mask><g stroke-linecap="round"><g transform="translate(1016.9811248012203 213.04568527918673) rotate(0 90.29921179501565 -67.361237899348)" fill-rule="evenodd"><path d="M-3.8 1.72 C26.54 0.95, 161.09 21.71, 179.61 -1.48 C198.13 -24.67, 137.46 -137.58, 107.3 -137.43 C77.15 -137.28, 17.23 -23.11, -1.31 -0.56" stroke="none" stroke-width="0" fill="#fff5f5" fill-rule="evenodd"></path><path d="M1.27 2.53 C31.99 1.99, 164.81 17.8, 182.13 -4.77 C199.45 -27.34, 135.63 -133.74, 105.17 -132.9 C74.72 -132.06, 16.92 -22.34, -0.61 0.27 M-1.49 1.44 C29.2 1.55, 163.3 22.18, 180.72 -0.96 C198.14 -24.11, 133.23 -138.11, 103.05 -137.44 C72.87 -136.78, 17.39 -19.31, -0.35 3.02" stroke="#1e1e1e" stroke-width="2" fill="none"></path></g></g><mask></mask><g stroke-linecap="round" transform="translate(1064.9366384098726 10) rotate(0 54.07749406933152 54.07749406933135)"><path d="M52.98 1.53 C61.26 -0.07, 70.19 0.61, 77.77 4.6 C85.34 8.59, 93.19 17.65, 98.41 25.46 C103.64 33.28, 108.84 42.42, 109.11 51.51 C109.38 60.59, 104.37 71.6, 100.05 79.99 C95.74 88.37, 90.72 97.26, 83.23 101.8 C75.74 106.33, 64.24 107.32, 55.13 107.22 C46.02 107.13, 36.1 105.12, 28.57 101.23 C21.05 97.34, 14.98 91.47, 9.98 83.86 C4.98 76.25, -1.11 64.93, -1.42 55.58 C-1.72 46.22, 3.99 35.92, 8.16 27.72 C12.34 19.53, 9.36 8.49, 23.64 6.4 C37.92 4.32, 79.8 6.35, 93.83 15.22 C107.86 24.09, 108.8 58.82, 107.82 59.61 M42.4 -0.24 C50.18 -3.24, 61.24 0.12, 69.99 2.81 C78.75 5.5, 88.83 9.23, 94.92 15.91 C101.01 22.6, 104.94 34.17, 106.52 42.93 C108.1 51.7, 107.14 59.89, 104.42 68.48 C101.69 77.07, 96.43 87.9, 90.18 94.48 C83.93 101.06, 76.12 106.11, 66.91 107.95 C57.69 109.79, 43.79 108.49, 34.89 105.5 C26 102.51, 19.34 97.04, 13.53 90 C7.71 82.96, 1.7 71.81, 0.01 63.27 C-1.67 54.73, 0.68 46.89, 3.42 38.78 C6.15 30.68, 9.46 20.55, 16.44 14.64 C23.41 8.74, 40.73 5.03, 45.26 3.36 C49.79 1.68, 43.72 3.75, 43.61 4.61" stroke="none" stroke-width="0" fill="#fff5f5"></path><path d="M89.97 16.38 C96.29 21.7, 101.8 29.32, 104.58 37.61 C107.37 45.9, 108.43 57.18, 106.66 66.13 C104.9 75.08, 100.02 84.37, 93.99 91.3 C87.95 98.22, 79.07 105.13, 70.45 107.69 C61.84 110.26, 51.44 109.09, 42.3 106.7 C33.16 104.31, 22.07 99.76, 15.59 93.34 C9.11 86.93, 5.46 76.72, 3.4 68.21 C1.34 59.69, 1.61 50.8, 3.22 42.25 C4.84 33.7, 7.18 23.64, 13.11 16.93 C19.03 10.22, 29.66 4.89, 38.78 1.99 C47.9 -0.91, 57.03 -5.74, 67.81 -0.46 C78.58 4.82, 96.71 24.38, 103.43 33.68 C110.16 42.98, 108.56 54.75, 108.14 55.33 M92.69 19.12 C98.98 24.2, 103.07 31.97, 105.52 40.94 C107.97 49.91, 109.67 64, 107.38 72.91 C105.09 81.82, 99.02 88.6, 91.79 94.4 C84.55 100.2, 73.18 106.35, 63.94 107.73 C54.7 109.1, 44.55 105.76, 36.35 102.65 C28.16 99.54, 21.02 95.22, 14.8 89.07 C8.57 82.91, 0.68 74.09, -1.01 65.73 C-2.7 57.36, 1.6 47.62, 4.64 38.89 C7.69 30.16, 11.38 19.13, 17.25 13.35 C23.12 7.57, 30.59 5.77, 39.89 4.21 C49.18 2.64, 64.33 1.44, 73.02 3.96 C81.71 6.48, 88.83 17.31, 92.02 19.33 C95.22 21.35, 92.69 15.42, 92.18 16.06" stroke="#1e1e1e" stroke-width="2" fill="none"></path></g><g stroke-linecap="round"><g transform="translate(1214.3244794837701 440.27372312953594) rotate(0 90.29921179501571 -67.361237899348)" fill-rule="evenodd"><path d="M-0.23 0.94 C29.89 -0.79, 164.68 14.71, 181.72 -8.07 C198.75 -30.84, 132.93 -137.69, 101.99 -135.7 C71.05 -133.7, 13 -19.41, -3.92 3.91" stroke="none" stroke-width="0" fill="#ffc9c9" fill-rule="evenodd"></path><path d="M1 0.8 C30.76 0.52, 162.07 19.6, 179.43 -2.95 C196.79 -25.5, 134.67 -135.06, 105.17 -134.53 C75.67 -133.99, 20.09 -21.77, 2.45 0.24 M-1.9 -1.24 C27.31 -2.17, 159.07 14.88, 176.56 -6.79 C194.05 -28.47, 133.18 -132.94, 103.04 -131.31 C72.9 -129.68, 12.21 -18.43, -4.28 2.98" stroke="#1e1e1e" stroke-width="2" fill="none"></path></g></g><mask></mask><g stroke-linecap="round" transform="translate(1262.2799930924225 237.2280378503492) rotate(0 54.077494069331465 54.07749406933135)"><path d="M8.95 21.48 C13.71 14.45, 24.63 10.65, 33.18 6.79 C41.73 2.94, 51.7 -2.13, 60.24 -1.67 C68.78 -1.21, 76.94 4.11, 84.41 9.55 C91.89 14.98, 101.18 22.78, 105.09 30.95 C109.01 39.12, 108.9 49.5, 107.91 58.56 C106.92 67.61, 104.25 77.91, 99.15 85.27 C94.06 92.62, 85.58 98.76, 77.33 102.67 C69.08 106.57, 58.92 109.69, 49.63 108.72 C40.34 107.75, 29.14 101.95, 21.58 96.85 C14.01 91.75, 7.91 86.21, 4.24 78.12 C0.56 70.03, -2.77 59.06, -0.48 48.31 C1.82 37.56, 12.36 20.65, 18 13.62 C23.63 6.59, 32.73 5.97, 33.35 6.13 M76.16 1.96 C84.12 4.15, 90.89 11.34, 95.89 19.06 C100.88 26.78, 104.84 39.58, 106.13 48.29 C107.42 57, 107.02 63.08, 103.63 71.3 C100.23 79.52, 92.69 91.43, 85.77 97.61 C78.85 103.79, 71.09 107.18, 62.1 108.38 C53.11 109.58, 40.23 108.42, 31.84 104.82 C23.44 101.22, 16.91 93.71, 11.75 86.78 C6.59 79.86, 2.39 71.89, 0.88 63.27 C-0.64 54.66, -0.68 44.01, 2.63 35.09 C5.94 26.16, 13.32 15.37, 20.73 9.71 C28.15 4.06, 38.59 2.26, 47.12 1.14 C55.65 0.02, 67.42 2.53, 71.9 2.99 C76.39 3.45, 73.54 2.82, 74.01 3.89" stroke="none" stroke-width="0" fill="#ffc9c9"></path><path d="M42.87 0.71 C50.76 -2.07, 60.19 0.23, 68.91 3.06 C77.64 5.89, 88.82 10.99, 95.23 17.68 C101.64 24.37, 105.88 34.67, 107.37 43.21 C108.87 51.75, 107.1 60.73, 104.19 68.93 C101.29 77.12, 96.08 86, 89.92 92.38 C83.76 98.75, 75.66 105.15, 67.25 107.17 C58.84 109.19, 48.37 107.05, 39.45 104.49 C30.54 101.93, 19.91 98.46, 13.76 91.82 C7.61 85.19, 4.37 73.43, 2.55 64.67 C0.73 55.9, 0.18 47.6, 2.86 39.25 C5.54 30.9, 7.32 20.81, 18.63 14.57 C29.95 8.34, 58.28 1.02, 70.74 1.84 C83.2 2.65, 93.68 18.58, 93.41 19.46 M44.67 -1.93 C53.85 -3.44, 68.62 1.75, 77.5 5.58 C86.39 9.41, 93.12 13.79, 97.96 21.04 C102.81 28.3, 105.51 40.12, 106.57 49.11 C107.63 58.11, 107.56 66.84, 104.32 75 C101.09 83.16, 94.48 92.47, 87.16 98.08 C79.85 103.69, 69.74 107.77, 60.45 108.66 C51.15 109.54, 39.81 107.37, 31.41 103.38 C23.01 99.39, 15.15 91.53, 10.05 84.73 C4.95 77.94, 1.86 71.09, 0.82 62.59 C-0.22 54.08, 0.67 42.19, 3.81 33.72 C6.94 25.24, 12.52 17.37, 19.63 11.74 C26.75 6.11, 41.85 1.77, 46.49 -0.08 C51.13 -1.94, 46.89 -0.28, 47.46 0.61" stroke="#1e1e1e" stroke-width="2" fill="none"></path></g><g stroke-linecap="round"><g transform="translate(797.026688595793 465.24357596869413) rotate(0 90.29921179501571 -67.361237899348)" fill-rule="evenodd"><path d="M3.87 -3.78 C34.31 -3.94, 163.72 19.85, 180.36 -1.88 C197 -23.6, 133.58 -134.83, 103.73 -134.12 C73.88 -133.41, 18.19 -19.56, 1.26 2.38" stroke="none" stroke-width="0" fill="#fff5f5" fill-rule="evenodd"></path><path d="M2.47 2.17 C31.86 1.33, 161.24 15.24, 178.74 -7.41 C196.24 -30.06, 137.07 -134.69, 107.47 -133.71 C77.88 -132.74, 19.23 -23.49, 1.17 -1.58 M0.36 0.89 C30.44 0.52, 166.42 18.23, 184.13 -5.04 C201.83 -28.3, 136.88 -139.57, 106.59 -138.7 C76.3 -137.83, 19.51 -22.53, 2.38 0.17" stroke="#1e1e1e" stroke-width="2" fill="none"></path></g></g><mask></mask><g stroke-linecap="round" transform="translate(844.9822022044453 262.1978906895074) rotate(0 54.077494069331465 54.07749406933135)"><path d="M21.17 12.13 C27.58 5.94, 38.19 -0.21, 47.42 -1.41 C56.64 -2.61, 68.43 1.25, 76.51 4.93 C84.59 8.61, 90.68 13.98, 95.91 20.66 C101.14 27.34, 106.48 36.13, 107.87 45.02 C109.27 53.91, 107.83 65.17, 104.27 74 C100.7 82.83, 93.47 92.73, 86.5 98.01 C79.54 103.28, 71.48 104.46, 62.5 105.67 C53.53 106.87, 40.87 108.32, 32.64 105.25 C24.41 102.18, 18.36 94.8, 13.1 87.25 C7.83 79.7, 2.86 68.82, 1.05 59.95 C-0.76 51.08, -3.71 43.32, 2.26 34.02 C8.22 24.72, 28.11 9.29, 36.85 4.13 C45.59 -1.03, 54.33 2.14, 54.68 3.07 M84.8 10.04 C92.03 15.05, 100.73 26.3, 104.65 34.31 C108.58 42.32, 109.76 49.69, 108.35 58.09 C106.95 66.49, 101.62 77.36, 96.21 84.69 C90.8 92.03, 84.18 98.28, 75.87 102.09 C67.56 105.9, 55.63 108.12, 46.35 107.56 C37.08 107.01, 26.89 103.55, 20.21 98.77 C13.53 93.99, 9.4 86.73, 6.28 78.86 C3.16 71, 0.82 60.65, 1.49 51.59 C2.17 42.52, 5.22 32.63, 10.34 24.49 C15.46 16.35, 24.14 7.16, 32.23 2.75 C40.33 -1.66, 49.66 -3.34, 58.91 -1.95 C68.16 -0.55, 83.58 9.21, 87.74 11.1 C91.9 12.99, 84.37 9.2, 83.85 9.4" stroke="none" stroke-width="0" fill="#fff5f5"></path><path d="M83.94 9.14 C91.02 13.09, 97.57 21.59, 101.5 30.15 C105.43 38.72, 108.32 51.4, 107.51 60.53 C106.71 69.67, 101.51 78.03, 96.66 84.96 C91.81 91.9, 86.27 98.22, 78.44 102.15 C70.6 106.07, 58.71 108.99, 49.67 108.53 C40.63 108.07, 31.8 104.98, 24.18 99.4 C16.56 93.81, 7.9 83.62, 3.95 75.02 C0 66.42, -0.63 56.55, 0.48 47.8 C1.6 39.06, 5.47 29.47, 10.64 22.55 C15.82 15.63, 23.58 10.01, 31.52 6.29 C39.47 2.57, 48.73 -0.95, 58.3 0.22 C67.88 1.38, 83.3 10.31, 89 13.29 C94.7 16.27, 92.88 17.78, 92.5 18.09 M51.1 3.12 C59.61 2.07, 68.4 4.05, 76.51 7.67 C84.62 11.29, 94.19 17.85, 99.78 24.85 C105.38 31.86, 109.43 41.55, 110.1 49.69 C110.77 57.82, 107.51 65.71, 103.81 73.66 C100.11 81.6, 94.98 91.26, 87.91 97.36 C80.84 103.45, 70.25 109.3, 61.39 110.25 C52.53 111.19, 43.35 106.71, 34.74 103.02 C26.13 99.32, 15.82 94.9, 9.73 88.06 C3.65 81.21, -0.54 71.63, -1.79 61.94 C-3.05 52.25, -1.76 38.78, 2.2 29.93 C6.16 21.08, 13.99 13.36, 21.96 8.87 C29.92 4.38, 45.72 3.84, 49.97 3 C54.22 2.15, 47.99 3.77, 47.45 3.8" stroke="#1e1e1e" stroke-width="2" fill="none"></path></g><g stroke-linecap="round"><g transform="translate(1307.6671195503538 386.1855416902854) rotate(0 -136 119)"><path d="M1.15 1.43 C-44.02 40.27, -224.93 195.91, -270.71 235.52 M-1.67 -0.27 C-47.13 40.05, -226.5 198.73, -272.25 237.81" stroke="#1e1e1e" stroke-width="2" fill="none"></path></g><g transform="translate(1307.6671195503538 386.1855416902854) rotate(0 -136 119)"><path d="M-259.14 216.84 C-265.5 221.67, -266.71 230.88, -270.52 238.47 M-260.37 215.43 C-263.93 220.6, -266.65 226.7, -271.75 237.32" stroke="#1e1e1e" stroke-width="2" fill="none"></path></g><g transform="translate(1307.6671195503538 386.1855416902854) rotate(0 -136 119)"><path d="M-247.91 229.74 C-257.88 230.6, -262.59 235.79, -270.52 238.47 M-249.14 228.32 C-255.44 230.32, -260.94 233.23, -271.75 237.32" stroke="#1e1e1e" stroke-width="2" fill="none"></path></g></g><mask></mask><g stroke-linecap="round"><g stroke-opacity="0.6" fill-opacity="0.6" transform="translate(1045.1869608201953 162.12998613472973) rotate(0 -146 122)"><path d="M0.63 2.39 C-29.75 4.47, -132.93 -17.75, -182.09 11.12 C-231.25 39.99, -287.56 136.46, -294.32 175.63 C-301.09 214.79, -234.56 234.28, -222.67 246.12 M-2.48 1.21 C-33.25 3.82, -136.66 -15.1, -184.37 14.27 C-232.08 43.64, -282.41 139.62, -288.75 177.45 C-295.1 215.28, -234.18 230.74, -222.44 241.23" stroke="#1e1e1e" stroke-width="2" fill="none"></path></g><g stroke-opacity="0.6" fill-opacity="0.6" transform="translate(1045.1869608201953 162.12998613472973) rotate(0 -146 122)"><path d="M-245.46 237.46 C-240.25 236.94, -233.74 239.26, -220.93 240.54 M-247.9 237.76 C-237.6 239.15, -227.5 239.49, -222.84 241.23" stroke="#1e1e1e" stroke-width="2" fill="none"></path></g><g stroke-opacity="0.6" fill-opacity="0.6" transform="translate(1045.1869608201953 162.12998613472973) rotate(0 -146 122)"><path d="M-237.29 222.44 C-234.65 226.54, -230.65 233.46, -220.93 240.54 M-239.73 222.74 C-232.71 230.12, -225.84 236.4, -222.84 241.23" stroke="#1e1e1e" stroke-width="2" fill="none"></path></g></g><mask></mask><g stroke-linecap="round"><g stroke-opacity="0.6" fill-opacity="0.6" transform="translate(977.1869608201953 412.12998613472973) rotate(0 130 -18)"><path d="M2.4 0.4 C45.93 -5.8, 219.95 -30.72, 262.79 -36.88 M0.26 -1.85 C43.52 -7.68, 219.21 -28.4, 262.07 -33.74" stroke="#1e1e1e" stroke-width="2" fill="none"></path></g><g stroke-opacity="0.6" fill-opacity="0.6" transform="translate(977.1869608201953 412.12998613472973) rotate(0 130 -18)"><path d="M240.06 -20.43 C247.12 -27.04, 255.31 -32.33, 262.52 -34.33 M239.98 -22.56 C244.38 -24.73, 251.6 -28.7, 262.23 -34.06" stroke="#1e1e1e" stroke-width="2" fill="none"></path></g><g stroke-opacity="0.6" fill-opacity="0.6" transform="translate(977.1869608201953 412.12998613472973) rotate(0 130 -18)"><path d="M238.01 -37.41 C245.83 -37.95, 254.75 -37.15, 262.52 -34.33 M237.93 -39.53 C242.69 -37.51, 250.41 -37.29, 262.23 -34.06" stroke="#1e1e1e" stroke-width="2" fill="none"></path></g></g><mask></mask><g stroke-linecap="round"><g stroke-opacity="0.6" fill-opacity="0.6" transform="translate(1371.1869608201953 366.12998613472973) rotate(0 -3 -104)"><path d="M1.02 -1.58 C25.58 -7.79, 119.79 -3.71, 146.5 -34.53 C173.2 -65.34, 214.43 -157.26, 161.27 -186.46 C108.11 -215.66, -117.46 -206.24, -172.44 -209.7 M-1.87 3.73 C23.69 -0.84, 124 1.3, 152.08 -31.19 C180.16 -63.67, 220.83 -161.68, 166.62 -191.15 C112.41 -220.63, -116.85 -205.56, -173.19 -208.02" stroke="#1e1e1e" stroke-width="2" fill="none"></path></g><g stroke-opacity="0.6" fill-opacity="0.6" transform="translate(1371.1869608201953 366.12998613472973) rotate(0 -3 -104)"><path d="M-150.91 -217.87 C-156.38 -216.29, -161.22 -213.73, -174.4 -207.06 M-150.22 -217.54 C-158.2 -213.78, -164.82 -211.03, -172.72 -207.66" stroke="#1e1e1e" stroke-width="2" fill="none"></path></g><g stroke-opacity="0.6" fill-opacity="0.6" transform="translate(1371.1869608201953 366.12998613472973) rotate(0 -3 -104)"><path d="M-150.74 -200.77 C-156.43 -203.8, -161.3 -205.84, -174.4 -207.06 M-150.06 -200.44 C-158.1 -202.27, -164.77 -205.11, -172.72 -207.66" stroke="#1e1e1e" stroke-width="2" fill="none"></path></g></g><mask></mask></svg>